<svg width="166" height="69" viewBox="0 0 166 69" fill="none" xmlns="http://www.w3.org/2000/svg">
<g filter="url(#filter0_b_11_226)">
<rect width="166" height="69" rx="10" fill="white" fill-opacity="0.05"/>
<g clip-path="url(#clip0_11_226)">
<path d="M31 45.75C31 45.4185 31.1317 45.1005 31.3661 44.8661C31.6005 44.6317 31.9185 44.5 32.25 44.5H39.75C40.0815 44.5 40.3995 44.6317 40.6339 44.8661C40.8683 45.1005 41 45.4185 41 45.75C41 46.0815 40.8683 46.3995 40.6339 46.6339C40.3995 46.8683 40.0815 47 39.75 47H32.25C31.9185 47 31.6005 46.8683 31.3661 46.6339C31.1317 46.3995 31 46.0815 31 45.75ZM23.5 34.655C23.5 31.4 26.5875 28.9125 29.825 29.215C33.9327 29.5984 38.0673 29.5984 42.175 29.215C45.4125 28.9125 48.5 31.4 48.5 34.655V37.5475C48.5102 38.1006 48.3235 38.6394 47.9732 39.0676C47.6228 39.4958 47.1317 39.7855 46.5875 39.885C44.475 40.2525 40.7375 40.75 36 40.75C31.2625 40.75 27.525 40.25 25.4125 39.885C24.8683 39.7855 24.3772 39.4958 24.0268 39.0676C23.6765 38.6394 23.4898 38.1006 23.5 37.5475V34.655ZM34.855 32.5875C34.7576 32.5709 34.6576 32.5777 34.5633 32.6072C34.469 32.6368 34.383 32.6883 34.3125 32.7575L32.0125 35.0075C30.4481 34.9142 28.8878 34.7616 27.335 34.55C27.1741 34.534 27.0132 34.581 26.8863 34.6811C26.7593 34.7812 26.676 34.9267 26.654 35.0869C26.632 35.2471 26.6729 35.4096 26.7682 35.5402C26.8635 35.6709 27.0057 35.7595 27.165 35.7875C28.54 35.9775 30.245 36.16 32.215 36.27C32.3018 36.2749 32.3886 36.2616 32.47 36.2311C32.5513 36.2005 32.6254 36.1533 32.6875 36.0925L34.5725 34.2525L36.69 38.5275C36.7346 38.6172 36.8001 38.6948 36.881 38.7539C36.9619 38.813 37.0558 38.8517 37.1548 38.8669C37.2538 38.8821 37.355 38.8733 37.4499 38.8412C37.5448 38.8091 37.6306 38.7547 37.7 38.6825L40.03 36.2575C41.6371 36.1621 43.2399 36.0053 44.835 35.7875C44.9943 35.7595 45.1365 35.6709 45.2318 35.5402C45.3271 35.4096 45.368 35.2471 45.346 35.0869C45.324 34.9267 45.2407 34.7812 45.1137 34.6811C44.9868 34.581 44.8259 34.534 44.665 34.55C43.32 34.735 41.6475 34.9125 39.715 35.0225C39.5577 35.0312 39.4094 35.0991 39.3 35.2125L37.415 37.175L35.31 32.925C35.2661 32.8369 35.202 32.7604 35.1229 32.7017C35.0439 32.6431 34.9521 32.6039 34.855 32.5875Z" fill="url(#paint0_linear_11_226)"/>
<path d="M37.25 19.1651C37.7266 18.8899 38.0991 18.4652 38.3097 17.9567C38.5203 17.4483 38.5573 16.8845 38.4148 16.353C38.2724 15.8214 37.9585 15.3516 37.5219 15.0166C37.0853 14.6816 36.5503 14.5 36 14.5C35.4497 14.5 34.9147 14.6816 34.4781 15.0166C34.0415 15.3516 33.7276 15.8214 33.5852 16.353C33.4427 16.8845 33.4797 17.4483 33.6903 17.9567C33.9009 18.4652 34.2734 18.8899 34.75 19.1651V22.0001H29.75C26.7663 22.0001 23.9048 23.1853 21.795 25.2951C19.6853 27.4049 18.5 30.2664 18.5 33.2501V34.5001C17.837 34.5001 17.2011 34.7635 16.7322 35.2323C16.2634 35.7011 16 36.337 16 37.0001V42.0001C16 42.6631 16.2634 43.299 16.7322 43.7678C17.2011 44.2367 17.837 44.5001 18.5 44.5001V47.0001C18.5 48.3261 19.0268 49.5979 19.9645 50.5356C20.9021 51.4733 22.1739 52.0001 23.5 52.0001H48.5C49.8261 52.0001 51.0979 51.4733 52.0355 50.5356C52.9732 49.5979 53.5 48.3261 53.5 47.0001V44.5001C54.163 44.5001 54.7989 44.2367 55.2678 43.7678C55.7366 43.299 56 42.6631 56 42.0001V37.0001C56 36.337 55.7366 35.7011 55.2678 35.2323C54.7989 34.7635 54.163 34.5001 53.5 34.5001V33.2501C53.5 30.2664 52.3147 27.4049 50.205 25.2951C48.0952 23.1853 45.2337 22.0001 42.25 22.0001H37.25V19.1651ZM51 33.2501V47.0001C51 47.6631 50.7366 48.299 50.2678 48.7678C49.7989 49.2367 49.163 49.5001 48.5 49.5001H23.5C22.837 49.5001 22.2011 49.2367 21.7322 48.7678C21.2634 48.299 21 47.6631 21 47.0001V33.2501C21 30.9294 21.9219 28.7038 23.5628 27.0629C25.2038 25.4219 27.4294 24.5001 29.75 24.5001H42.25C44.5706 24.5001 46.7962 25.4219 48.4372 27.0629C50.0781 28.7038 51 30.9294 51 33.2501Z" fill="url(#paint1_linear_11_226)"/>
</g>
<path d="M70.2955 18.3636L73.5341 27.8409H73.6648L76.9034 18.3636H78.8011L74.6136 30H72.5852L68.3977 18.3636H70.2955ZM83.2315 30.1761C82.3717 30.1761 81.6312 29.9924 81.0099 29.625C80.3925 29.2538 79.9152 28.733 79.5781 28.0625C79.2448 27.3883 79.0781 26.5985 79.0781 25.6932C79.0781 24.7992 79.2448 24.0114 79.5781 23.3295C79.9152 22.6477 80.3849 22.1155 80.9872 21.733C81.5933 21.3504 82.3016 21.1591 83.1122 21.1591C83.6046 21.1591 84.0819 21.2405 84.544 21.4034C85.0062 21.5663 85.4209 21.822 85.7884 22.1705C86.1558 22.5189 86.4455 22.9716 86.6577 23.5284C86.8698 24.0814 86.9759 24.7538 86.9759 25.5455V26.1477H80.0384V24.875H85.3111C85.3111 24.428 85.2202 24.0322 85.0384 23.6875C84.8565 23.339 84.6009 23.0644 84.2713 22.8636C83.9455 22.6629 83.563 22.5625 83.1236 22.5625C82.6463 22.5625 82.2296 22.6799 81.8736 22.9148C81.5213 23.1458 81.2486 23.4489 81.0554 23.8239C80.866 24.1951 80.7713 24.5985 80.7713 25.0341V26.0284C80.7713 26.6117 80.8736 27.108 81.0781 27.517C81.2865 27.9261 81.5762 28.2386 81.9474 28.4545C82.3187 28.6667 82.7524 28.7727 83.2486 28.7727C83.5705 28.7727 83.8641 28.7273 84.1293 28.6364C84.3944 28.5417 84.6236 28.4015 84.8168 28.2159C85.0099 28.0303 85.1577 27.8011 85.2599 27.5284L86.8679 27.8182C86.7391 28.2917 86.508 28.7064 86.1747 29.0625C85.8452 29.4148 85.4304 29.6894 84.9304 29.8864C84.4342 30.0795 83.8679 30.1761 83.2315 30.1761ZM88.8608 30V21.2727H90.5028V22.6591H90.5938C90.7528 22.1894 91.0331 21.8201 91.4347 21.5511C91.84 21.2784 92.2983 21.142 92.8097 21.142C92.9157 21.142 93.0407 21.1458 93.1847 21.1534C93.3324 21.161 93.4479 21.1705 93.5312 21.1818V22.8068C93.4631 22.7879 93.3419 22.767 93.1676 22.7443C92.9934 22.7178 92.8191 22.7045 92.6449 22.7045C92.2434 22.7045 91.8854 22.7898 91.571 22.9602C91.2604 23.1269 91.0142 23.3598 90.8324 23.6591C90.6506 23.9545 90.5597 24.2917 90.5597 24.6705V30H88.8608ZM95.1378 30V18.3636H96.8366V22.6875H96.9389C97.0374 22.5057 97.1795 22.2955 97.3651 22.0568C97.5507 21.8182 97.8082 21.6098 98.1378 21.4318C98.4673 21.25 98.9029 21.1591 99.4446 21.1591C100.149 21.1591 100.778 21.3371 101.331 21.6932C101.884 22.0492 102.318 22.5625 102.632 23.233C102.95 23.9034 103.109 24.7102 103.109 25.6534C103.109 26.5966 102.952 27.4053 102.638 28.0795C102.323 28.75 101.892 29.267 101.342 29.6307C100.793 29.9905 100.166 30.1705 99.4616 30.1705C98.9313 30.1705 98.4976 30.0814 98.1605 29.9034C97.8272 29.7254 97.5658 29.517 97.3764 29.2784C97.187 29.0398 97.0412 28.8277 96.9389 28.642H96.7969V30H95.1378ZM96.8026 25.6364C96.8026 26.25 96.8916 26.7879 97.0696 27.25C97.2476 27.7121 97.5052 28.0739 97.8423 28.3352C98.1795 28.5928 98.5923 28.7216 99.081 28.7216C99.5885 28.7216 100.013 28.5871 100.354 28.3182C100.695 28.0455 100.952 27.6761 101.126 27.2102C101.304 26.7443 101.393 26.2197 101.393 25.6364C101.393 25.0606 101.306 24.5436 101.132 24.0852C100.962 23.6269 100.704 23.2652 100.359 23C100.018 22.7348 99.5923 22.6023 99.081 22.6023C98.5885 22.6023 98.1719 22.7292 97.831 22.983C97.4938 23.2367 97.2382 23.5909 97.0639 24.0455C96.8897 24.5 96.8026 25.0303 96.8026 25.6364ZM107.557 30.1932C107.004 30.1932 106.504 30.0909 106.057 29.8864C105.61 29.678 105.256 29.3769 104.994 28.983C104.737 28.589 104.608 28.1061 104.608 27.5341C104.608 27.0417 104.703 26.6364 104.892 26.3182C105.081 26 105.337 25.7481 105.659 25.5625C105.981 25.3769 106.341 25.2367 106.739 25.142C107.136 25.0473 107.542 24.9754 107.955 24.9261C108.477 24.8655 108.902 24.8163 109.227 24.7784C109.553 24.7367 109.79 24.6705 109.938 24.5795C110.085 24.4886 110.159 24.3409 110.159 24.1364V24.0966C110.159 23.6004 110.019 23.2159 109.739 22.9432C109.462 22.6705 109.049 22.5341 108.5 22.5341C107.928 22.5341 107.477 22.661 107.148 22.9148C106.822 23.1648 106.597 23.4432 106.472 23.75L104.875 23.3864C105.064 22.8561 105.341 22.428 105.705 22.1023C106.072 21.7727 106.494 21.5341 106.972 21.3864C107.449 21.2348 107.951 21.1591 108.477 21.1591C108.826 21.1591 109.195 21.2008 109.585 21.2841C109.979 21.3636 110.347 21.5114 110.688 21.7273C111.032 21.9432 111.314 22.2519 111.534 22.6534C111.754 23.0511 111.864 23.5682 111.864 24.2045V30H110.205V28.8068H110.136C110.027 29.0265 109.862 29.2424 109.642 29.4545C109.422 29.6667 109.14 29.8428 108.795 29.983C108.451 30.1231 108.038 30.1932 107.557 30.1932ZM107.926 28.8295C108.396 28.8295 108.797 28.7367 109.131 28.5511C109.468 28.3655 109.723 28.1231 109.898 27.8239C110.076 27.5208 110.165 27.197 110.165 26.8523V25.7273C110.104 25.7879 109.987 25.8447 109.812 25.8977C109.642 25.947 109.447 25.9905 109.227 26.0284C109.008 26.0625 108.794 26.0947 108.585 26.125C108.377 26.1515 108.203 26.1742 108.062 26.1932C107.733 26.2348 107.432 26.3049 107.159 26.4034C106.89 26.5019 106.674 26.6439 106.511 26.8295C106.352 27.0114 106.273 27.2538 106.273 27.5568C106.273 27.9773 106.428 28.2955 106.739 28.5114C107.049 28.7235 107.445 28.8295 107.926 28.8295ZM115.825 18.3636V30H114.126V18.3636H115.825ZM118.111 30V21.2727H119.81V30H118.111ZM118.969 19.9261C118.673 19.9261 118.42 19.8277 118.207 19.6307C117.999 19.4299 117.895 19.1913 117.895 18.9148C117.895 18.6345 117.999 18.3958 118.207 18.1989C118.42 17.9981 118.673 17.8977 118.969 17.8977C119.264 17.8977 119.516 17.9981 119.724 18.1989C119.937 18.3958 120.043 18.6345 120.043 18.9148C120.043 19.1913 119.937 19.4299 119.724 19.6307C119.516 19.8277 119.264 19.9261 118.969 19.9261ZM124.635 30.1932C124.082 30.1932 123.582 30.0909 123.135 29.8864C122.688 29.678 122.334 29.3769 122.072 28.983C121.815 28.589 121.686 28.1061 121.686 27.5341C121.686 27.0417 121.781 26.6364 121.97 26.3182C122.16 26 122.415 25.7481 122.737 25.5625C123.059 25.3769 123.419 25.2367 123.817 25.142C124.214 25.0473 124.62 24.9754 125.033 24.9261C125.555 24.8655 125.98 24.8163 126.305 24.7784C126.631 24.7367 126.868 24.6705 127.016 24.5795C127.163 24.4886 127.237 24.3409 127.237 24.1364V24.0966C127.237 23.6004 127.097 23.2159 126.817 22.9432C126.54 22.6705 126.127 22.5341 125.578 22.5341C125.006 22.5341 124.555 22.661 124.226 22.9148C123.9 23.1648 123.675 23.4432 123.55 23.75L121.953 23.3864C122.143 22.8561 122.419 22.428 122.783 22.1023C123.15 21.7727 123.572 21.5341 124.05 21.3864C124.527 21.2348 125.029 21.1591 125.555 21.1591C125.904 21.1591 126.273 21.2008 126.663 21.2841C127.057 21.3636 127.425 21.5114 127.766 21.7273C128.11 21.9432 128.393 22.2519 128.612 22.6534C128.832 23.0511 128.942 23.5682 128.942 24.2045V30H127.283V28.8068H127.214C127.105 29.0265 126.94 29.2424 126.72 29.4545C126.5 29.6667 126.218 29.8428 125.874 29.983C125.529 30.1231 125.116 30.1932 124.635 30.1932ZM125.004 28.8295C125.474 28.8295 125.875 28.7367 126.209 28.5511C126.546 28.3655 126.802 28.1231 126.976 27.8239C127.154 27.5208 127.243 27.197 127.243 26.8523V25.7273C127.182 25.7879 127.065 25.8447 126.891 25.8977C126.72 25.947 126.525 25.9905 126.305 26.0284C126.086 26.0625 125.872 26.0947 125.663 26.125C125.455 26.1515 125.281 26.1742 125.141 26.1932C124.811 26.2348 124.51 26.3049 124.237 26.4034C123.968 26.5019 123.752 26.6439 123.589 26.8295C123.43 27.0114 123.351 27.2538 123.351 27.5568C123.351 27.9773 123.506 28.2955 123.817 28.5114C124.127 28.7235 124.523 28.8295 125.004 28.8295Z" fill="#E5E5E5"/>
<path d="M69.233 52V41.8182H75.3381V42.9119H70.4659V46.3523H74.8807V47.446H70.4659V52H69.233ZM77.2086 52V44.3636H78.3422V45.517H78.4217C78.5609 45.1392 78.8128 44.8326 79.1774 44.5973C79.542 44.362 79.9529 44.2443 80.4103 44.2443C80.4965 44.2443 80.6042 44.246 80.7335 44.2493C80.8627 44.2526 80.9605 44.2576 81.0268 44.2642V45.4574C80.987 45.4474 80.8959 45.4325 80.7534 45.4126C80.6142 45.3894 80.4667 45.3778 80.3109 45.3778C79.9397 45.3778 79.6083 45.4557 79.3166 45.6115C79.0282 45.764 78.7995 45.9761 78.6305 46.2479C78.4648 46.5163 78.3819 46.8229 78.3819 47.1676V52H77.2086ZM85.3869 52.1591C84.6511 52.1591 84.0164 51.9967 83.4828 51.6719C82.9525 51.3438 82.5431 50.8864 82.2548 50.2997C81.9698 49.7098 81.8272 49.0237 81.8272 48.2415C81.8272 47.4593 81.9698 46.7699 82.2548 46.1733C82.5431 45.5734 82.9442 45.1061 83.4579 44.7713C83.975 44.4332 84.5782 44.2642 85.2676 44.2642C85.6653 44.2642 86.0581 44.3305 86.4458 44.4631C86.8336 44.5956 87.1866 44.8111 87.5048 45.1094C87.823 45.4044 88.0765 45.7955 88.2654 46.2827C88.4544 46.7699 88.5488 47.3698 88.5488 48.0824V48.5795H82.6625V47.5653H87.3556C87.3556 47.1345 87.2695 46.75 87.0971 46.4119C86.9281 46.0739 86.6861 45.8071 86.3713 45.6115C86.0597 45.416 85.6918 45.3182 85.2676 45.3182C84.8002 45.3182 84.3959 45.4342 84.0545 45.6662C83.7164 45.8949 83.4563 46.1932 83.274 46.5611C83.0917 46.929 83.0005 47.3234 83.0005 47.7443V48.4205C83.0005 48.9972 83.1 49.486 83.2988 49.8871C83.501 50.2848 83.7811 50.5881 84.139 50.7969C84.497 51.0024 84.9129 51.1051 85.3869 51.1051C85.6951 51.1051 85.9735 51.062 86.2221 50.9759C86.474 50.8864 86.6911 50.7538 86.8734 50.5781C87.0557 50.3991 87.1966 50.1771 87.296 49.9119L88.4295 50.2301C88.3102 50.6146 88.1097 50.9527 87.8279 51.2443C87.5462 51.5327 87.1982 51.758 86.7839 51.9205C86.3696 52.0795 85.9039 52.1591 85.3869 52.1591ZM93.5353 52.1591C92.7995 52.1591 92.1648 51.9967 91.6312 51.6719C91.1009 51.3438 90.6916 50.8864 90.4032 50.2997C90.1182 49.7098 89.9757 49.0237 89.9757 48.2415C89.9757 47.4593 90.1182 46.7699 90.4032 46.1733C90.6916 45.5734 91.0926 45.1061 91.6064 44.7713C92.1234 44.4332 92.7266 44.2642 93.416 44.2642C93.8137 44.2642 94.2065 44.3305 94.5943 44.4631C94.9821 44.5956 95.3351 44.8111 95.6532 45.1094C95.9714 45.4044 96.225 45.7955 96.4139 46.2827C96.6028 46.7699 96.6973 47.3698 96.6973 48.0824V48.5795H90.8109V47.5653H95.5041C95.5041 47.1345 95.4179 46.75 95.2456 46.4119C95.0765 46.0739 94.8346 45.8071 94.5197 45.6115C94.2082 45.416 93.8403 45.3182 93.416 45.3182C92.9487 45.3182 92.5443 45.4342 92.2029 45.6662C91.8649 45.8949 91.6047 46.1932 91.4224 46.5611C91.2401 46.929 91.149 47.3234 91.149 47.7443V48.4205C91.149 48.9972 91.2484 49.486 91.4473 49.8871C91.6494 50.2848 91.9295 50.5881 92.2875 50.7969C92.6454 51.0024 93.0614 51.1051 93.5353 51.1051C93.8436 51.1051 94.122 51.062 94.3706 50.9759C94.6225 50.8864 94.8395 50.7538 95.0218 50.5781C95.2041 50.3991 95.345 50.1771 95.4444 49.9119L96.5779 50.2301C96.4586 50.6146 96.2581 50.9527 95.9764 51.2443C95.6947 51.5327 95.3467 51.758 94.9324 51.9205C94.5181 52.0795 94.0524 52.1591 93.5353 52.1591ZM102.022 42.9119V41.8182H109.658V42.9119H106.456V52H105.224V42.9119H102.022ZM110.609 52V44.3636H111.743V45.517H111.822C111.961 45.1392 112.213 44.8326 112.578 44.5973C112.942 44.362 113.353 44.2443 113.811 44.2443C113.897 44.2443 114.005 44.246 114.134 44.2493C114.263 44.2526 114.361 44.2576 114.427 44.2642V45.4574C114.387 45.4474 114.296 45.4325 114.154 45.4126C114.015 45.3894 113.867 45.3778 113.711 45.3778C113.34 45.3778 113.009 45.4557 112.717 45.6115C112.429 45.764 112.2 45.9761 112.031 46.2479C111.865 46.5163 111.782 46.8229 111.782 47.1676V52H110.609ZM115.818 52V44.3636H116.991V52H115.818ZM116.415 43.0909C116.186 43.0909 115.989 43.013 115.823 42.8572C115.661 42.7015 115.579 42.5142 115.579 42.2955C115.579 42.0767 115.661 41.8894 115.823 41.7337C115.989 41.5779 116.186 41.5 116.415 41.5C116.643 41.5 116.839 41.5779 117.001 41.7337C117.167 41.8894 117.25 42.0767 117.25 42.2955C117.25 42.5142 117.167 42.7015 117.001 42.8572C116.839 43.013 116.643 43.0909 116.415 43.0909ZM121.387 52.179C120.904 52.179 120.464 52.0878 120.07 51.9055C119.676 51.7199 119.362 51.4531 119.13 51.1051C118.898 50.7538 118.782 50.3295 118.782 49.8324C118.782 49.3949 118.868 49.0402 119.041 48.7685C119.213 48.4934 119.444 48.2779 119.732 48.1222C120.02 47.9664 120.338 47.8504 120.686 47.7741C121.038 47.6946 121.391 47.6316 121.745 47.5852C122.209 47.5256 122.586 47.4808 122.874 47.451C123.166 47.4179 123.378 47.3632 123.51 47.2869C123.646 47.2107 123.714 47.0781 123.714 46.8892V46.8494C123.714 46.3589 123.58 45.9777 123.311 45.706C123.046 45.4342 122.644 45.2983 122.103 45.2983C121.543 45.2983 121.104 45.4209 120.786 45.6662C120.468 45.9115 120.244 46.1733 120.115 46.4517L119.001 46.054C119.2 45.59 119.465 45.2287 119.797 44.9702C120.131 44.7083 120.496 44.526 120.89 44.4233C121.288 44.3172 121.679 44.2642 122.064 44.2642C122.309 44.2642 122.591 44.294 122.909 44.3537C123.23 44.41 123.54 44.5277 123.838 44.7067C124.14 44.8857 124.39 45.1558 124.589 45.517C124.788 45.8783 124.887 46.3622 124.887 46.9688V52H123.714V50.9659H123.654C123.575 51.1316 123.442 51.3089 123.257 51.4979C123.071 51.6868 122.824 51.8475 122.516 51.9801C122.208 52.1127 121.832 52.179 121.387 52.179ZM121.566 51.125C122.03 51.125 122.422 51.0339 122.74 50.8516C123.061 50.6693 123.303 50.4339 123.466 50.1456C123.631 49.8572 123.714 49.554 123.714 49.2358V48.1619C123.664 48.2216 123.555 48.2763 123.386 48.326C123.22 48.3724 123.028 48.4138 122.809 48.4503C122.594 48.4834 122.383 48.5133 122.178 48.5398C121.976 48.563 121.812 48.5829 121.686 48.5994C121.381 48.6392 121.096 48.7038 120.831 48.7933C120.569 48.8795 120.357 49.0104 120.194 49.1861C120.035 49.3584 119.956 49.5937 119.956 49.892C119.956 50.2997 120.106 50.608 120.408 50.8168C120.713 51.0223 121.099 51.125 121.566 51.125ZM128.202 41.8182V52H127.029V41.8182H128.202Z" fill="#E5E5E5" fill-opacity="0.4"/>
</g>
<defs>
<filter id="filter0_b_11_226" x="-10" y="-10" width="186" height="89" filterUnits="userSpaceOnUse" color-interpolation-filters="sRGB">
<feFlood flood-opacity="0" result="BackgroundImageFix"/>
<feGaussianBlur in="BackgroundImageFix" stdDeviation="5"/>
<feComposite in2="SourceAlpha" operator="in" result="effect1_backgroundBlur_11_226"/>
<feBlend mode="normal" in="SourceGraphic" in2="effect1_backgroundBlur_11_226" result="shape"/>
</filter>
<linearGradient id="paint0_linear_11_226" x1="28" y1="32.1" x2="46.6" y2="35.9" gradientUnits="userSpaceOnUse">
<stop stop-color="#00BFC0"/>
<stop offset="0.505208" stop-color="#1BDED2" stop-opacity="0.98"/>
<stop offset="1" stop-color="#369BFB" stop-opacity="0.96"/>
</linearGradient>
<linearGradient id="paint1_linear_11_226" x1="27.2" y1="14.5" x2="45.8" y2="48.3" gradientUnits="userSpaceOnUse">
<stop stop-color="#369BFB"/>
<stop offset="0.256905" stop-color="#00C09D" stop-opacity="0.928067"/>
<stop offset="0.468027" stop-color="#3F66CB" stop-opacity="0.868953"/>
<stop offset="0.681357" stop-color="#096FA8" stop-opacity="0.80922"/>
<stop offset="1" stop-color="#00BFC0"/>
</linearGradient>
<clipPath id="clip0_11_226">
<rect width="40" height="40" fill="white" transform="translate(16 14.5)"/>
</clipPath>
</defs>
</svg>
